<svg width="40" height="40" viewBox="0 0 40 40" fill="none" xmlns="http://www.w3.org/2000/svg">
<g clip-path="url(#clip0_213_391)">
<path d="M37.9999 22H22.0001V38.0001C22.0001 39.1039 21.104 40 19.9999 40C18.8961 40 18 39.1039 18 38.0001V22H1.99988C0.896118 22 0 21.1039 0 20.0001C0 18.896 0.896118 17.9999 1.99988 17.9999H18V2.00012C18 0.895996 18.8961 -0.00012207 19.9999 -0.00012207C21.104 -0.00012207 22.0001 0.895996 22.0001 2.00012V17.9999H37.9999C39.104 17.9999 40.0001 18.896 40.0001 20.0001C40.0001 21.1039 39.104 22 37.9999 22Z" fill="#141414"/>
</g>
<defs>
<clipPath id="clip0_213_391">
<rect width="40" height="40" fill="white" transform="matrix(1 0 0 -1 0 40)"/>
</clipPath>
</defs>
</svg>
